<svg id="Layer_1" data-name="Layer 1" xmlns="http://www.w3.org/2000/svg" viewBox="0 0 64 64"><defs><style>.cls-1{fill:#006837;}.cls-2{fill:#f15a24;}.cls-3{fill:#0071bc;}</style></defs><title>icon</title><path class="cls-1" d="M40.83,7h4.66V64H40.83ZM44,56.39H51.5a6.36,6.36,0,0,0,5.7-3.27q2-3.27,2-9.23V27.11q0-6-2-9.23a6.36,6.36,0,0,0-5.7-3.27H44V7h7.38A10.28,10.28,0,0,1,58.2,9.39a14.93,14.93,0,0,1,4.31,7A36.11,36.11,0,0,1,64,27.42V43.58a36.11,36.11,0,0,1-1.49,11.05,14.8,14.8,0,0,1-4.33,7A10.28,10.28,0,0,1,51.34,64H44Z"/><path class="cls-2" d="M0,0H64V7H0ZM8,5h6V64H8Z"/><path class="cls-3" d="M14,7h5.31V64H14Zm3.31,25.13h21v7.6h-21ZM35.52,7h5.31V64H35.52Z"/></svg>