<svg xmlns="http://www.w3.org/2000/svg" xmlns:xlink="http://www.w3.org/1999/xlink" viewBox="0 0 1125 2208">
    <defs>
        <style>
            .cls-1{fill:none;}.cls-2{fill:#81c784;}.cls-3{clip-path:url(#clip-path);}.cls-4{fill:#b2fab4;}.cls-5{fill:#006837;}.cls-6{fill:#f15a24;}.cls-7{fill:#0071bc;}.cls-8{fill:#519657;}
        </style>
        <clipPath id="clip-path">
            <rect width="1125" height="2208" class="cls-1"/>
        </clipPath>
    </defs>
    <title>
        Artboard 1
    </title>
    <g id="Layer_4" data-name="Layer 4">
        <rect width="1125" height="2208" class="cls-2"/>
    </g>
    <g id="Layer_5" data-name="Layer 5">
        <g class="cls-3">
            <path d="M94.5,623.89c26.9,131.7-38.42,170.1,1.36,316.39C91.53,882.45,126.93,709.3,94.5,623.89Z" class="cls-4"/>
            <path d="M95.86,940.28v1.16L100,955.26C98.26,949.24,97.3,945.25,95.86,940.28Z" class="cls-4"/>
            <path d="M-3238.52,2121.14c33.91,3.74,13.25-190.3,18.87-301.79,39.63-55.75,20.69,142.57,35.82,241.83,24.51-51.81,41.36-230.34,60.28-223,1.85,31.94,5.67,43.56,1.94,83.67,24.51-154.75,79.05-8.67,107.4-203,2.56,17.16,3.95,33.44,4.74,48.2-6.39-97.23-8.55-196.15-8.5-266.5,15.13-3.52,26.44-123.08,33.93,3.79-9.36-3.6-9.41,47.61-13.21,87.3l15.12-55.26c16.86,182.16-20.82,63.33-18.93,198.32,30.17-59.72,64.19-211.25,88.66-160,7.45,178.45-54.71,60.86-20.8,219.17l-37.7-67.66c32,281.2-22.61-19.3,7.4,281.54,49.09,51,52.83-91.74,101.8-40.32,9.48-99.35-5.64-146.67,3.84-246.11,66.09-179.21,60.24,448.16,107.34,209.64,11.39-119.13,13.3-345.08,50.87-226.1l-9.43,202c47.11,19.38,22.69-290.53,73.62-155.44-7.61,79.44-35.87,67.38-28.45,91.3,34,158.94,20.88-114.8,45.3-115.14l7.55,178.71c49.46-28.82,102.58-158.69,157.34-192-2.31,53.18-11,109.25,2.69,163.74,68.39-90.29,149,19.74,217.61,124.82l23.51-154.64c6,1.6,12,69.55,6,99.55,27,58.14,0-98,11.72-158.68,14.75-11,20.92,88.41,12.12,134.85,44.37-131.43,127.66-283.65,178.64-119.06l-8.85,46c38.78,62.08,38.36-316.83,75.52-173.45l-6.36,27.43c83.19,65.72,172.12-76.85,238.13,155.2,8.83-222.42,82.8,97.95,83.77-212.06,49.11,153,36.43,208.59,104,310.86,17.86,14,23.63-193.92,45-226.55l2.8,161.95,27.28-170.31,18.48,193.54,19.91-41.87c-8.29-9.5-18.36-72.51-17.77-119.1,31-73.88,79.58,111.72,81.53,194.71l73.8-138.1c-.77,65.21-13.14,87.73-22.58,129.45,38.1-165.89,9.72,170.58,44.64,18.51-5.48-36.78,1.33-96.55,1.72-129.31,19.83,97.68,61.86,98,92.37,56.23l-4.41,111.74c56.56,27.7,117.64-55.17,180.7-54-23.34-51.67-20.84-245.4-2.62-264.26l9.78,171.21c10.45-106.14-20.21-64.39,2.48-194.36,23.82,19.44,18.55,194.48,5.81,250.5l27.79-59.85c2.39,51.07-3.94,78.13-4.78,143.33,10.26-106.55,51.8,171.15,66.17-13.75l2.33,50.92c63,.54,90.77-58.79,142-68.07-1.06-147.89,19.47-115.31,33.09-235,38.37,46.73,81.86,162.27,127.12,149.07,30.91-74,7.59-125.29,20.72-213.38,4.22,134.59,49.44,121.39,27.24,218.49,54.24-22.73,69.29-27.94,136.74-138.24-8.25-54.93-17-78.83-13.29-124.84,12.21-22.25,29.27,56.06,28.38,120.8l-3.11,14c74.61-203.09,184.18,390,241.91,108.41l-3.26,13.92,61.9-147.08c29.73,22.83-16.24,101.39,6.7,184.51,65.83-225.69,109.42,31,164.12-119.49C155,2189,261.1,1762.32,324,2015.07l-4.73-93.52c14.05-91.83,19.29,53.26,30.9,74.55-2.62-72.63-17.82-83.83-9-134.79C469.5,1746.69,611.22,1994.24,745.6,2076.8c49.07,24.4,20.89-484.31,85.42-261.86l-15,173.87c95.41-209.54,201.13,4.39,294.91-173.68-5.18,40.14-4.61,92.23-14,91.73,22.09,125.88,75.26,5.1,74.17-97.83,15.15,11.47,4.77,93,14.73,145.23,21.44,74.15,48.94-161.78,61.53-36.4,2.12,20.37-5.16,41-8.76,50.8,12.44-61.27,62.13,14.7,47.37-130.68,37.1,68.94,68.2-65.62,98.22,20.08,16.51-163,62.92,77.41,65.68-152.76.73,237.85,66,190.83,87.29,78.75-6.65,72,20.89,74.27,13.33,173.85,26-3.68,49.28-48.17,43-170.27,52,283.82,93.33-230.32,125.45,133.9,75.64-128.87,146.09-216.4,215-272.93.79,237.06-76.66,24.68-70.2,273.48,64.71-98.59,100-302.65,166.3-246.32,17.42,32.25-8.2,103.06-13.36,143.56,64.64-98.59,127.93,19.77,184.86-110.15.15,22.08-5.85,46.29-11.59,64.46,11.48-7.84,27.41,34.53,24.6-73.37l-10.88,29.44C2183,1573.52,2245,1402.3,2246,1319.64c-15.34,309.15,59.1,76.83,33.34,467.52,7.33-20.4,16.18-71.58,13.42-143.57,11.6,20.77,15.78,62.82,5.46,145,40.64-59.25,24.31-173.64,61.91-171.74.6,52.25-6.7,72.49-9.73,133.89,17.6-101.88,35.29-204.07,67.65-160.36-1.47,31.46,2.78,72.36-6.7,71.71,54.3-16.54,89.15-272.23,150.33-174.87-14.48,227,21.39,74.41,27.3,270.6l31.34-59-14.23-95.07c28.22,3,51.12-140.36,76.24-76.41l-19.81,81.14,52.27-38-30.92-74c27.1-101.54-6.52-248.28,31.75-194.14-7.34,20.24,28.21,2,44.51,117.47,0,0-.1,0-.09.53,13.07-62.7,26.49-128.61,48-80.28,6.29,62.69-1.32,217.11,2.78,258.75,11.46-164.2,65.34-46.34,80.32-221.37-5.23,41.14-4.1,144.07-1.9,165.23l9.68-133.53c13.65,42.45,15.85,63.09,14.87,145.22,39.6,23.85-15.94-248.78,32.15-142.14-3.51,10.83-1.48,30.83-8.82,51.07,47.58,55.28,89.23-85.84,133.14-20.84,15.45,197.32-36.89,48.89-20,215.27,61.5-36.66,125.07-238.45,185.71-192.82l-11.48-21.65c4.43-278.88,46.6,137.2,75.11,5.36-7.14,20.66-7.58,154.79-6,123.69,41.71,44.22,83-69.72,144.08-158.21l-6.72,71.7c25.11,63.58,64.28,36,90.9,68.19,6.76-71.6,21.88-60.14,11.34-164.2,86.33,406.74,150.78-220.82,227.07,118-8.54.9-19.52,62.94-12.7,63.21l60-66.92c-6.51-121.47-9-73.43-23.14-167.82,6.71-72.12,23.14-128.19,38.24-128.4-26.29,80.86,3,195.07,15.74,262.66-2.5-37.19,1-78.3-.55-116.13,34.86,215.66,1.93-244.46,47.43-99.51l-1.41,63.8c15.81-32.82,29.62-117.34,47.42-99.35,9.24,140.41-16.4,65.79-15.9,181.45,24.52-8.43,44.91-266.87,69.16-127.14-9.92,39.3-25,40.14-34.88,79.19,26.59,164.67,28.82,122.68,47.23,148.61l-1.83-3.71,42.76,74.11-11.25-44.64c25.73-366.71,61.86-67.74,100-308.28-37.21,227.7-4.84,131.51-5.72,290.67,11.23,44.11,28,93.46,24.08,138.31,17.83-128.75,34.19,100.78,59.27-87.48,2,51.29,21.07,4.71,18.44,133.5,25-40.67-7.28-89.12-6-153.44,36.9-175.59,95.44,211.08,148.69-29.94,47.42-99.61,54-272.62,98.12-359.36,16.43,81.79-9.91,186.89-9.91,186.89,25.71,75.14,44.07,61,66.48,1.91-4.08,44.85,1.3,82.63,9.19,140.15,18.46-13.72,9.86-186.89,35.51-111.64-3.42,57.3-7.56,148.73-15.76,206.1,21.32-47.4,41.69-143.43,63.79-189.95,7.28,89.23-11.83,135.71-19,194.22,25-40.68,65.12-82,71-223.44l-17.11-50.24c9.23-6.91,6.49,121.36,0,147.27-20.37,111.17-32.29-48.6-34.25-100l15.75-33.08c-20.84-300.45-64.4,49.17-97.26,32.17l10.55-218.87-30.92,181.93c-7.91-56.88-14.48-178.88,1.17-211.8-24.89-107.75-19.62,78-41.39-42.16-2.47-18.74-1.62-29.27.31-38l-21.93,65.5c3.84-46-6-154.33,8.52-122.94-42.76-125.58-63.83,164.93-81.58-.54l3.24-13.51c-55.86,74.71-3.26,160.62-43.31,349.61l-34.24-395.53-3.36,160.51c-6-5.7-17.73-17.57-16.47-81.79-20.31,110.17,4.69,69.76-6.54,173.65C4245.59,1011.77,4199,1227,4189,971.49c-8.44,122,28.33,93.67-.64,178.93-12.44-274.91-34.21,47.59-61.78-78.21,5.95-142,31.44-67.21,3.85-193.48-12.22,240.07-51-51.92-72.11-5.68,1.64,191-46.22,80.36-81.86,144.52,1.41-64.32-70.2-104-105.15-172.61l.56-32.08c-3.89,193.11-39.45,157.18-64.41,197.43-.61-115.5,3.35-161.14,16.45-213.06l-24,1.23c-4.8,61.95-11.83,94.64-27.08,116.94l4-144.33c-31.83,8.39-61.94,170.79-104.37,75-.44,134.66,37.91,374.4-4.29,464.84-2.63-72.73-6-197.18,5-227.15-3.59,9.67-12.44,60.64-20.38,29.68l15.65-122.67c-19.46-53.52-8.36,102.43-23.48,91.23-1.15-103.82-12.1-73.91-11.11-156.31,3.68-10.1,13.65,42.66,18.81,1.89-17.13-18.37-38.38-79.54-46.21-158.14,2.29,59,2,139.78-10.22,153.41-31.83,8-12.67-124.7-32-177.84-6.73,72.23-28.15-2.19-26.51,153-9.36-.66-12.1-73-16.29-114.92-15.58,68.62-76.93,20.58-56,185.38l4.39,10.82c-.75,3.22-1.68,3.39-2.61,6.82h0c-52,155-113.75-86.32-166.57-19.07l-.64-52c-31.26,59.74-70.92,36-92.28,148-9.49,0-23.72-94.41-20.52-156.33-24,39.34-25.92,97.68-62.54,12.54,23.39-90.92-9.63-80.1,24.34-66.69-32.49-44.34-40.87-127.4-73.1,15,9.79-133.1-26.33-167.14-40.93-127.13l23.66,94.78c-16.76,19.63-31.82,8-47.11-3.08l5.74-175c-68.18-211.88-112.56,363.67-167.17,8.22C2834.55,788,2886.71,751,2873.28,894.32c-30.33-23.18-65.08-273.75-74.49-274.14-42.44-96.31-34.77,256.06-78.69,190.42,6.36,62.16,13.88,228.67-17.43,287.89-30.35-22.66-40.55-261.16-22.3-311.47,7.12-5.35,10.88,14.47,10.86,35.55,9.39-22.74,21.74-49.72,8.91-117.21l-3,62.45c-15.78-63.45-57-56.2-48.72-158.63-21.85,59.72-8.27,102.43,9,134.53-39.76-89.83-60.19-1.85-100.67-62,6.78,34.29,13.61,107.49,7.33,106.95-59.21-76.46-23.94,118.68-62.95,146.56-23.71-94.78,4.85-227.14-33.69-146.9-25.11-64-7.43-165.46,1.48-216.42-34.45,120.77-68.6-78.12-89.54-99.91l18.33-50.57c-11,30.07-20.3,29.3-29.79,29.17l12.6,124.59c-11.47-21.66-20.94-21.89-21.45-73.89-10.37,81.91,11.71,207.41-9.58,319.49-15.78-63.19-44.41,68.65-51.86-96.81,47.63,55.54-7.5-166.25,31.78-193.5-7.37,19.87-16.71,19.21-28.23-2.55a113.19,113.19,0,0,1,4-43.85c-46.89-147.35-18,187.52-64.5,184.33,4.6-93.38-13.23-176.84-20.54-156.81,18.75,1.63,11.13,155.53-5.05,227.26-30.8-72.23-31.62,54.49-47.33,46.24L2186,819c-4.74,93.39-19.8,81.4-40.15,111.07-2.79-72.62,18.15-50.3,10.3-82.16-20.77,164.33-54.47-169.06-85.07-58.12-15.77-62.92-3.89-175.29-17.56-218C2019.2,693.3,2012.74,444.5,1976.27,545c12.66,125.21,14.14,94.54-10.82,217.18l61-89.12L1989.07,856c18.81,1.52,38.54-79.35,50.1-58.22-17.61,102.56-16.09,71.36-5.64,175.31-28.34-187.77-49.45,110.32-80.94-16.32l-3.42-310.47c-46.61-137.84-77.16,160.38-136.27,83.13l19.4,53.67c-6.06,123.43-35.58,17.69-53.67,68,.3-103.84-12-141.42-20.89-205.86,2,77-42.57-6.45-44.94,200.89L1685,709.8c-47.63-55.33-49.34,296.43-94.86,261.73,12-113-9.51-186.25,19.54-267.36-15.05-.84-28.84-19.63-28.07,52.23-9.69-64.79-39.74,140.46-54.94,42.09-5.71,45.67-6.26,154.4-23.26,146-2.14-21-.65-51.2-.65-51.2.65,51.2-25.45,70.07-9.1,184.72-50.83-323.16-129.11,25.41-173.32-252.16-32.33,35.26-71.4,69.19-101.08,77.18,1.48-31.1-.62-51.73,5.16-41-42.44-95.94-21.1,298.35-69.37,191.19-26.23-167.41,23.57-91.08,7.79-154.37-11.25-341.43-55.78,47.36-90-151.53l7.34-20.24c-25.67-115.68-56.88,130.18-96.52,106.34,0,0,1.49-30.2-.49-51.57-24.44,174.53-74.52,232.85-111.65,281.74,9.9-133.74,16.19-70.94,7.12-206.62-16.68,19.48,8,218-25.29,256.45-12-73-37.31-136.6-42.57-281.42l31.8-8.28c-19-187.28-41.21,7-58.48-25.37l1-81.93C736.54,743.69,738.74,950.18,686,936.15l6.3,62.05c-25.87,204.83-25.69-114.78-52.22,37.69L628.5,828.48c-18.25,50.31-63.58,201.52-97,241,17.11-154.13,55.77-233.38,79.11-325.08-18.81-1.26-63.63,16.19-72,118.72,7.3-20.13,16.12-71.09,24-39.24-20.77,163.44-50,244.07-87.46,241,1-402.43-99-100-130.49-412-64.15,149.64-132.26-61.72-209.07-36.77,31.73,312.65-22.4,9.19-13.18,330.47-17.68,20.9-24.61,15.74-26.5-5.16L38.81,750.22C24.6,656.83,54.91,679.12,52.26,607,12.57,582.92,33.85,471,6.62,386,13.56,500.89-4.76,550.83-27.8,507.25L5.85,655.05C-46.74,826.86-45.44,385.94-98.49,556.13l16.11-101.38c-27.6,60.06-104.94-.59-129.21,258-5.55-37-13.42-124.84-1.23-148.25-68.5-37.79-147.45,276.88-202.5,118.6l4.06-78.61c-12.36,22.89-20,148-37,69.08.37-32.5,4-78.5-1.92-83-6.34,27.16-31.76,138.19-49.2,92.59l13.12-88.62C-554,492.51-585,811.29-639.82,866c-3.09-231.4-56.3-305.84-82.86-343l.45-32.76c-77.6-27.52-128.45,193.59-198.67,285.42-47.88-250.54-151.78-103-225.06-242.91,11.49,42,.74,180.32-11.62,203.73-17.39-46.6-44,161.19-44.33-51.11l6,4c-15.51-208-49.14-152-76.07-157.45l-.56,277.66c-75.88-402.78-182,150.91-225.37-210.21-16,69.68-37,69.08-52.83,138.75l-1.17-148.88c-47.5-37.35-71.2-55.63-128.76-19.39l10.35-106.56c-32.88-9.06-35.36,429.73-65.44,438.88l-12.19-222c-57.08,4.26-117.63-190-171.27,12.27.47-32.5,1.26-96.81,10.38-105.93-27-5.4-106.12-148.94-92.1,155.86-3.44-198.53-59.21-18.57-88.85,69.38l2.76-146.51c-23.43,187.5-23.55,238.71-59.19,291-8.88-19-9.19-117.17,2.78-79.85-29.78-76.34-20.44,139-56.34,61.52l11.66-93.75c-29.7-10.89-26.65,39.28-41.4,148.58-17.76,59-56.56-36.17-62.77-168.58-2.86,80.8-17.53,189.05-35.48,151.07-3.05-50,2.86-81.16,5.84-96.35-50.8-99-71.09,171.34-107.08,27.94-1.38-48.5-3.93-72.76-7-87.33,39.29,3.08,71,10.57,68.2,21.29-1.88-135-33.92-158.31-11.3-345.17-24,102.12-64.45,324-96.24,260.91-1.69-13.06-3.33-25.87-4.74-46.67l3-15.18c-7.31-13.36-13.53-.71-19.22,22.08-10.18-22-16.67-38.41-26.17-40.33-5.21-111.6-37.19-59.68-53.08-64.87,3.37,147.74-17.66,124.27,3.44,246.06-2.66-10.63,2.74-17.75,13.16-24,2.32-4.4,5.09-6.64,6.53-15.39-.25,4.1-.56,8.73-.9,13,10.32-4.41,23.81-7.91,39.16-10.43-11.44,75.23-23.61,138.55-42.23,56.79-6.79,95.1-14.36,192.84-18.75,238.75-24.51-205.81-67.76-316.62-75.34-443.59-47.11,83.57-112.95,56.26-139.43,334.28-13.23,35.89-16.89-79.36-22.63-122.92,7.54-28,17-23.85,20.75-63.8-26.44,71.61-80.91,28.83-84.76,222.84-35.81-87,17-178.79-30.13-146.42l5.59-59.39c-97.82-308.63-145.09,497.14-254.29,100.71,7.51,24.29,11.26,35.54,13.19,68-120.62-173.82-241.23,168-361.72-108.57-33.93-55.63-35.79,68.27-54.7,162.75l-9.4-158.65-32,183.62c-47.17,134.78-90.37-388.33-148.92-133.88l9.5,106.81c-22.58-19.83-69.76,64-67.75-59-2,19.54-5.76,111.39-15.25,55.68l-1.84-83L-3877,1114.85c-43.31-59.49,2-329.78-60.15-345.11-22.6,32.28-62.23,242.72-52.8,298.16,9.35,4,24.47,51.5,26.33,134.65l-20.47,43.56c-.4,244.8-13.1,495.66,41,665.88l33.95-150.15,13.26,118.53-30.22,7.89c18.76,111.41,28.29,12.43,39.56-55.5,3.77,63.09,9.45,107.18,16.93,130.58l32.11-234.21c5.63,95.67-13.21,190.15,11.27,242.7,15.06-108.78-18.89-214.46,7.55-286.07,18.79,110.88,15,201.68,33.93,106.31,3.73,63,0,103.2-7.63,131,17-75.84,47.22-32.63,54.7-162.86,19.89,137,60.32-36.54,61.77,195.14,4.89-55.53,29.19-182.32,45.6-192.17-26.35,277.76,62.16,15.43,58.32,312.91,18.89-249.68,79.26-111.88,116.95-250.79-1.94,19.8-5.74,60-9.41,47.35,22.59,20.4,30.12,95.47,45.11,142.37,0-206,34.07-253.57,51-380.89,30.1,198.27-13.23,242.14-2,432.84-3.7-166.93,45.18-167.25,33.94-306.21,22.62,122.66,18.84,59.41,32,230.1.07-257.62,18.85-44.05,34-202.42,32,126.53,11.16,241.17,43.3,162.44C-3210.23,2029.48-3238.52,2121.14-3238.52,2121.14Zm784.21-456.37,0,3c-6.76,3.46-12.53,6.48-16.2,8.58A162.9,162.9,0,0,0-2454.31,1664.77Zm66.39-3.24c-8.17-5.67-18.25-6.52-28.89-5.38-3-50.9-1.26-103.56,5.46-101C-2414.5,1589.4-2398.43,1618.57-2387.92,1661.53Zm-154.79-1022c10.22-21.07,14.15,7.9,16,38.16-4.93,2.65-10.66,7.72-18.14,18-.23,5.53-.77,11.84-1,18.1C-2545.22,685.49-2544.44,659-2542.71,639.5Z" class="cls-4"/>
            <path d="M690.64,842.92c-8.4-82.7-27.86-135.68-38.26-54.15C667.5,800,683.32,864.31,690.64,842.92Z" class="cls-4"/>
        </g>
    </g>
    <g id="Layer_3" data-name="Layer 3">
        <path d="M649.87,181.52h63.8V961.65h-63.8Zm43.16,676h102.9q50.36,0,78-44.8t27.68-126.35V456.77q0-81.56-27.68-126.36t-78-44.8H693V181.52h101q54.72,0,93.51,32.73t59.11,95.51Q967,372.54,967,461.06V682.12q0,88.51-20.33,151.3t-59.26,95.5q-38.94,32.73-93.67,32.73H693Z"/>
        <path d="M91.06,85.72H967v95.8H91.06Zm109.5,68.43h82.11v807.5H200.56Z"/>
        <path d="M282.67,181.52H355.4V961.65H282.67ZM328,525.45h287.7V629.53H328Zm249.2-343.93h72.72V961.65H577.15Z"/>
        <path d="M605.81,146.81h63.8V926.94h-63.8Zm43.16,676H751.86q50.35,0,78-44.8t27.68-126.36V422.05q0-81.56-27.68-126.35t-78-44.81H649V146.81H750q54.72,0,93.51,32.72T902.61,275q20.32,62.77,20.33,151.3V647.4q0,88.53-20.33,151.3t-59.27,95.51q-38.94,32.73-93.67,32.73H649Z" class="cls-5"/>
        <path d="M47,51H922.94v95.81H47Zm109.49,68.43h82.12V926.94H156.49Z" class="cls-6"/>
        <path d="M238.61,146.81h72.73V926.94H238.61Zm45.28,343.92h287.7V594.82H283.89ZM533.08,146.81h72.73V926.94H533.08Z" class="cls-7"/>
    </g>
    <g id="Layer_1" data-name="Layer 1">
        <g class="cls-3">
            <path d="M-1899.7,3141.5c34.1-.38-9.8-190.51-17.66-301.86,32.61-60.13,37.73,139,64.72,235.74,18.08-54.39,13.29-233.65,32.94-228.67,5.69,31.48,10.88,42.56,12,82.83,5.67-156.59,77.42-18.14,82.14-214.49,4.6,16.72,8,32.71,10.51,47.27-18.06-95.75-32.13-193.69-40.56-263.53,14.59-5.32,11.41-125.37,34.13-.33-9.72-2.45-3.6,48.4-2.59,88.26l8.36-56.68c38.69,178.79-13,65.38,5.11,199.16,22.75-62.93,38.25-217.45,68.72-169.54,28.92,176.24-47,67,5.78,220.07l-45.59-62.62c65.69,275.29-24.76-16.43,41.3,278.6,54.88,44.76,41.38-97.45,96.19-52.31-2.56-99.76-23.28-144.91-25.86-244.78,44-185.87,113.84,437.63,131.84,195.18-3.06-119.64-28.41-344.17,23.23-230.59l15,201.69c49.1,13.55-12.51-291.15,54.34-163.19,2,79.79-27.48,71.21-17.23,94.07,52.91,153.68,6.88-116.48,31.08-119.77l29,176.5c45.62-34.57,82.69-169.9,133-209.62,4.12,53.08,2.26,109.78,22.41,162.22,57-97.87,150.25,1.64,231.07,97.68l4.7-156.34c6.14.86,20.34,67.58,18,98.09,33.8,54.47-11.82-97.23-7.49-158.93,13.31-12.68,31.42,85.24,28.28,132.4,28.21-135.82,92.54-297,163-139.72L-713,2725c46,57-.12-319.15,54.06-181.29l-3,28c90.51,55.21,161.6-97,255.11,125.35-18.05-221.86,94,87.26,57.58-220.6,67.2,145.9,61.32,202.67,140.75,296,19.42,11.74.08-195.35,17.38-230.32l22.3,160.43,6.55-172.36,41.68,189.9,14.72-44c-9.38-8.44-27-69.77-32-116.09,21.84-77.08,92.47,101.31,104.41,183.46l56.61-146c7.09,64.83-2.47,88.67-6.81,131.23,17.82-169.27,30.21,168.16,46.54,13-9.87-35.85-10.31-96-13.88-128.57,31.46,94.57,73.22,89.81,98.48,44.68l9.1,111.45C216,2790,266.66,2700.39,329.4,2694c-29.39-48.49-50.28-241.1-34.46-262l30.35,168.79c-2.42-106.63-27.82-61.48-21-193.24,26,16.42,41.86,190.83,36,248l20.37-62.77c8.53,50.41,5.51,78,12.54,142.87-2.67-107,72.06,163.66,64-21.63l8.45,50.26c62.62-7.06,83-69.3,132.73-84.69-18.88-146.67,5.42-116.81,4.52-237.28,43.72,41.77,100.81,151.22,144.16,132.66,21.76-77.18-7.58-125.29-5.16-214.33,20.42,133.1,63.71,114.55,53.39,213.62,51.09-29.11,65.41-36.09,119.07-153.72-14.82-53.53-26.39-76.21-28.24-122.32,9.43-23.57,35.81,52.12,42.73,116.49l-1.39,14.3c49.57-210.61,229.84,364.91,253.21,78.44l-1.56,14.22,43.71-153.47c32.28,19.07-3.88,102.6,28.9,182.35,38.14-232,112.36,17.55,148.52-138.4,97,387.72,150.85-48.68,243.75,194.64l-16-92.26c2.88-92.87,25.58,50.53,39.66,70.27-11.35-71.78-27.78-81.06-25.17-132.72,113.59-129.26,284.12,99.4,427.47,165.16,51.65,18.3-37.65-483.3,53.23-270.26l6.07,174.42c69.45-219.51,200.19-19.89,271.81-208-.3,40.47,6.54,92.12-2.85,92.75,37.1,122.3,75.32-4,61.83-106.05,16.42,9.55,15.95,91.74,32.13,142.38,30.22,71,29.07-166.49,56.69-43.55,4.56,20-.18,41.35-2.57,51.49,5-62.32,63.45,7.1,31.27-135.44,45.14,64,59.79-73.36,99.92,8.09-3.26-163.81,71.8,69.26,46.79-159.56,29.4,236,88.52,181.48,96.14,67.65,2.08,72.25,29.7,71.21,34.19,171,25.39-6.78,43.12-53.75,22.2-174.21,85.83,275.48,64.87-239.9,140.67,117.79,59.56-137,118.93-232.42,180.48-296.85,29.38,235.23-73.12,33.74-36.71,279.95,52.36-105.67,62.77-312.5,135.39-264.58,21.18,29.92,4.29,103.3,4.05,144.13,52.28-105.67,129.38,4.2,170.23-131.64,2.81,21.9-.23,46.67-3.73,65.39,10.44-9.16,31.37,31,15.57-75.8l-7.25,30.53c-39.34-152.54,1.64-330-7.42-412.16,22,308.74,67.93,69.14,89.46,460.08,4.82-21.13,7.43-73-4-144.13,14,19.21,23.23,60.46,22.89,143.27,33.21-63.71,3.21-175.3,40.76-178,6.89,51.8,2.09,72.77,6.48,134.08,5.19-103.25,10.43-206.83,47.82-167.34,2.34,31.41,11.49,71.5,2,72,51.91-23,55.68-281,128.15-191.71,13,227.1,30.21,71.29,59.72,265.33l24-62.3-25.59-92.66c28.37-.46,33.83-145.5,66.47-85l-9.88,82.94,47.32-44-39.62-69.75c14.66-104.06-36.41-245.68,8.1-196.54-4.84,21,28.26-1.4,58.36,111.24,0,0-.1,0,0,.53,5.41-63.81,10.79-130.86,38-85.47,13.8,61.47,24.86,215.68,34,256.52-8.42-164.38,59.28-53.88,53-229.43-.23,41.46,13.3,143.5,18,164.24l-6.49-133.71c18.67,40.49,23.33,60.71,32.27,142.36,42.18,18.9-45.82-245,14.77-145-2.17,11.17,2.25,30.79-2.59,51.76,53.89,49.14,78.23-96,129.66-36.74,39.12,194-30.73,53,6.05,216.12,56.63-43.81,95.41-251.79,161.11-213.8l-14-20.12c-29.23-277.37,62.81,130.59,75.21-3.73-4.6,21.37,11.14,154.57,8.95,123.52,46.74,38.86,74-79.23,123.95-174.43l2,72c32.59,60.1,68.15,28,98.45,56.73-1.92-71.89,14.48-62.33-8.53-164.36,134.74,393.36,123.05-237.39,239.64,89.73-8.38,1.93-11.79,64.83-5,64.28l51.52-73.67c-21.11-119.8-17.8-71.81-43.2-163.8-2-72.41,7.51-130.05,22.48-132.08-16.35,83.44,26.45,193.29,47.29,258.85-7-36.61-8.46-77.85-14.54-115.22,60.6,209.88-27.56-242.9,35.08-104.5l6.29,63.5c11.74-34.48,15.26-120.06,35.1-104.34,26.1,138.27-8.35,67.29,6.09,182.05,23.33-11.33,12.4-270.34,53.33-134.56-5.11,40.22-19.94,42.87-25.09,82.82,46.25,160.26,43.41,118.31,64.81,141.83l-2.26-3.46,51.38,68.42-16.55-43c-18.67-367.14,53.24-74.7,62.15-318.1-9.48,230.53,11.05,131.14,29.37,289.24,16.46,42.44,39.11,89.4,40.58,134.4,2.18-130,46.09,95.93,48.29-94,8.13,50.67,21.48,2.12,34.4,130.3,19.88-43.39-18-87.6-24.48-151.6,15.46-178.76,120.19,198,144-47.64,35.07-104.61,20.77-277.16,54.08-368.58,26.17,79.22,12.69,186.73,12.69,186.73,34.59,71.49,51.1,55.24,66.23-6.12,1.36,45,11.25,81.87,26,138,16.66-15.84-12.75-186.71,21.79-115.11,3.51,57.3,10.43,148.57,9.21,206.51,15.45-49.63,24.09-147.41,40.42-196.26,18,87.7,4.61,136.14,4.51,195.1,19.92-43.39,54.75-89.29,43.58-230.38l-23-47.8c8.32-8,21.07,119.69,17.73,146.19-6.82,112.81-37.91-44.35-46.06-95.19l11.64-34.73c-56.91-295.75-58,56.56-92.67,43.65l-15.92-218.54-8.76,184.33c-14.71-55.51-35.94-175.82-24.37-210.39-37.7-104-10.07,79.83-46.17-36.87-4.71-18.3-5.13-28.86-4.27-37.78l-13.88,67.67c-1.74-46.13-24.52-152.49-6.37-123.07-57.59-119.51-43.48,171.42-81.05,9.3l1.59-13.8c-46.45,80.89,16.13,159.84-.84,352.28l-81.68-388.52,16,159.75c-6.59-4.94-19.72-15.31-26.21-79.21-6.88,111.81,13.07,68.68,14.45,173.17-47.65-141.08-68,78.24-108.68-174.24,6.34,122.17,39.42,89.57,20.93,177.7-45.49-271.4-28.22,51.37-70.75-70.19-11.22-141.72,23.11-70.51-19.5-192.54,16.81,239.8-56.88-45.39-72.28,3.07,24.66,189.39-36.19,85.34-63.83,153.33-6.36-64-82.24-94.79-125.19-158.68l-3.32-31.91c19.43,192.18-20.21,160.79-40.14,203.76-14.53-114.59-16.1-160.37-9.36-213.49l-23.65,4.11c2.7,62.08-.33,95.38-12.79,119.35l-13.41-143.76c-30.58,12.16-40.89,177-94.56,87,15.8,133.73,82.77,367.09,51.79,462-11.38-71.88-29.7-195-22.44-226.09-2.4,10-5,61.69-16.65,31.92l.75-123.67c-25.77-50.77,4.05,102.7-12.31,93.4-13.66-102.92-20.93-71.91-29.87-153.83,2.43-10.46,18.69,40.7,18.9-.39-19.22-16.17-47.69-74.33-65-151.41,9.39,58.3,18.79,138.52,8.35,153.52-30.63,11.79-27.61-122.26-53.25-172.68,2,72.51-28.2,1.22-7.87,155.08-9.37.47-20.81-71-30-112.12-7.19,70-73.89,29.71-33.24,190.78l5.66,10.21c-.35,3.29-1.26,3.57-1.76,7.09l.13,0-.13,0c-33,160.18-123.34-72-167.66,1.15l-6.91-51.54c-23.83,63.08-66.05,44.35-73.75,158.08-9.43,1.12-34.93-90.87-39.23-152.73-19.06,42-13.95,100.1-60.57,20,12.26-93.08-19.21-78.36,16.13-69.14-37.6-40.1-55.94-121.55-70.77,23.71-6.32-133.32-46.28-162.75-55.95-121.28l34.91,91.24c-14.27,21.51-30.62,11.79-47.13,2.62L4133.94,934c-93.24-202.12-67.89,374.58-165,28.31-.66,123.55,46.67,80.57,50.62,224.45-32.9-19.36-97.62-263.91-107-263.17-53.74-90.49-3.65,258.39-55.16,198.53,13.81,60.94,41.35,225.33,17.4,287.89-32.86-18.84-71.74-254.37-59.69-306.51,6.43-6.18,12.55,13,15.08,34,6.57-23.71,15.58-52-5.29-117.43l4.52,62.36c-23.31-61.09-63.34-48.92-67.48-151.6-14.5,61.92,4.14,102.68,25.13,132.46-50.3-84.37-60,5.43-107.41-49.41,10.87,33.22,26.47,105.06,20.17,105.28-68-68.77-9.46,120.7-44.82,153.09-35-91.23-22.57-226.08-51.15-141.77-32.65-60.56-27.33-163.36-24.63-215-19.63,124.05-77.52-69.28-100.93-88.38l12.09-52.41c-7.25,31.17-16.61,31.53-26,32.55l27.54,122.16c-14-20.12-23.43-19.21-30.21-70.76-.42,82.55,36.63,204.48,29,318.31-23.28-60.83-35.81,73.5-63.16-89.85,54,49.39-27.48-164.13,8.22-195.92-4.92,20.61-14.27,21.08-28.32.87a112.86,112.86,0,0,1-1.29-44c-64.31-140.62,4.75,188.33-41.81,190.77-6.69-93.26-34.46-174-39.29-153.19,18.81-.64,29.79,153,22.38,226.2-39.28-68-24.82,57.91-41.41,51.62l22.23,31.41c6.56,93.28-9.84,83.2-26.47,115.11-11.52-71.76,12-52.13.32-82.81-.8,165.64-74.45-161.26-91.45-47.44-23.25-60.56-25-173.54-43.72-214.24C3147.51,1090.17,3111.1,844,3087,948.13c27.67,122.78,25.44,92.15,15.45,216.91l49.83-95.84-15.08,186.09c18.86-.76,28.7-83.42,42.71-63.84-5.11,103.94-7.36,72.78,15.54,174.72-50.77-183-35.78,115.47-82.31-6.45l-40.83-307.79c-62.89-131.21-57.26,168.52-125.25,99l25.73,50.94c8.86,123.26-33.19,21.85-45.08,74-12.23-103.12-28.94-139-45.56-201.84,11.31,76.18-43-1.28-20.39,204.84l-44-132c-54-49.19-13.24,300.21-62.62,271.26-1.72-113.62-31.89-183.75-12.84-267.77-15,1-31-16-21.56,55.24-17.43-63.16-22.52,144.23-49.47,48.41-.15,46,12.41,154-5.48,147.75-4.65-20.59-6.82-50.75-6.82-50.75,6.82,50.75-16.82,72.63,13.24,184.47-89.42-314.67-125.11,40.79-202.46-229.42-27.84,38.9-62.53,77.29-91,88.8-2.29-31-6.86-51.27.17-41.35-53.7-90.12,15,298.72-45.81,198.16-46.22-163,12.41-93.26-10.88-154.18-52.34-337.59-49.67,53.74-107.65-139.57l4.85-21c-39.43-111.74-40.77,136.09-83,117.2,0,0-2.17-30.16-6.71-51.13-3.22,176.2-45.9,240.13-76.86,293.14-6.3-133.95,7.51-72.38-17.85-206-14.21,21.34,34.23,215.42,5.82,257.63-20.74-71-53.51-131.1-76.19-274.24l30.56-12c-41.4-183.62-40.07,11.91-61.11-18.13l-8.88-81.45c-44.88,32.93-17.8,237.65-71.87,230.07l13.74,60.85c-1,206.45-39.34-110.85-47.29,43.71L1783.25,1392c-12,52.15-38.82,207.72-67.26,250.94-1.6-155.07,27.23-238.4,39.34-332.25-18.82,1-61.21,23.75-57.14,126.54,4.81-20.87,7.43-72.52,19.13-41.85-.91,164.74-20.18,248.31-57.75,249.8-47.51-399.62-110.33-87.37-179.22-393.27-45.63,156.28-138.73-45.32-212-11.3,69.2,306.54-21.12,11.83,26.76,329.65-15,22.89-22.52,18.6-26.93-1.92l-79.77-182.93c-25.37-91,7.41-72.52-3.92-143.77-42.3-19.14-34.68-132.86-72-213.91,20.75,113.21,8.58,165-19.55,124.51l51.22,142.66c-31.49,176.91-83.36-261-115.5-85.61l3.77-102.58c-20.16,63-104.24,12.07-97.16,271.7-10-36.1-28.38-122.31-19.09-147-72.57-29.26-113,292.64-186.73,142.15l-5.44-78.52c-9.52,24.21-2,149.35-28.4,73-3.55-32.3-5.48-78.41-11.92-82.21-3,27.74-14.87,141-37.68,97.85l2.35-89.55c-79.54-93.09-71.88,227.11-119.73,288-31-229.33-92.76-296.82-123.6-330.46l-3.51-32.58c-80.34-18-104.17,207.67-162.81,307.3-77.73-243-163.09-83.93-252.71-214C2.54,1352.65,8.55,1491.31-.89,1516c-22.88-44.17-24.27,165.31-50.17-45.4l6.46,3.26c-40.48-204.6-67.11-145-94.5-147.13l32.92,275.7c-123.89-390.69-162.46,171.75-249.07-181.5-7.46,71.09-28.39,73-35.71,144.1l-19.11-147.65c-51.66-31.35-77.4-46.64-130.17-3.73l-2.57-107c-33.73-5,16.71,430.86-12.05,443.57l-38.87-218.93c-56.15,11.12-139.68-174.43-168.54,32.83-3.45-32.32-10.42-96.25-2.46-106.4-27.43-2.12-123.31-135.06-72.64,165.82-27.35-196.67-61-11.3-79.83,79.59l-14.93-145.78c-.66,189,5.4,239.81-23.67,296.06-11.11-17.75-23.25-115.21-6.86-79.6-38.78-72.2-3.53,140.48-48.52,67.85l.28-94.47c-30.81-7.23-21.73,42.21-23.19,152.49-10.51,60.74-60.51-29.09-82.64-159.78,6.9,80.55,5.39,189.78-17,154.25-9-49.28-6.94-80.92-5.82-96.35-62.37-92.18-49.91,178.66-102.92,40.65-7.22-48-12.68-71.76-17.44-85.87,39.38-1.68,71.78,1.94,70.28,12.91-18.15-133.83-52.76-153.06-52.83-341.28-11.55,104.27-24.93,329.39-64.09,270.61-3.25-12.77-6.42-25.28-10.33-45.76l1.13-15.43c-8.88-12.38-13.52.93-16.43,24.24-12.75-20.66-21.17-36.12-30.83-36.88-18.63-110.16-44.12-54.76-60.51-58,21.15,146.26-2.55,125.5,33.07,243.85-3.92-10.24.58-17.95,10.17-25.46,1.77-4.65,4.25-7.21,4.62-16.07.25,4.11.51,8.74.68,13,9.71-5.61,22.68-10.71,37.61-15.07-2.28,76.07-6.73,140.39-35.07,61.47,4.72,95.22,9,193.16,10.17,239.27-49.14-201.36-105.44-306.14-128.27-431.27-36.69,88.64-105.35,69.46-98.11,348.65-8.8,37.22-26.33-76.75-37.28-119.3,4.11-28.67,14-25.72,12.9-65.84-17.61,74.28-76.84,38.39-57.27,231.44-46-82.08-4.73-179.52-47.57-141.72l-1.61-59.63c-134.31-294.58-84.09,511-240.29,130.64,10.39,23.2,15.47,33.92,21.29,65.92-140.7-158-219.21,195.89-372.17-64.17-40.38-51.13-27.29,72.09-34.68,168.16l-28.45-156.36-9.66,186.15c-30.58,139.48-136.53-374.61-164-115l22.31,104.89c-24.81-17-61.53,72-74.37-50.4.36,19.64,7.71,111.27-8.43,57.12l-11.83-82.22-35.16,148.44c-50.16-53.84-37.73-327.63-101.32-335.35-18.53,34.77-32.5,248.45-16.46,302.35,9.76,2.82,30.5,48.18,42.37,130.5l-15.06,45.7c29.11,243.07,46.74,493.63,121,656.09l15.6-153.16,27.46,116.07-29.05,11.48c32.06,108.33,29.59,8.93,32.58-59.86,11.35,62.17,22.3,105.25,32.55,127.58l3.64-236.37c17.12,94.29,9.81,190.35,40.45,239.56,1.83-109.8-44.61-210.61-27-284.89,32,107.81,39.24,198.4,46.5,101.44,11.3,62.08,12.45,102.46,8.22,131,7.69-77.33,42.95-38.08,34.67-168.26,36.26,133.65,55.47-43.55,84.85,186.27-1.84-55.72,7-184.51,22.1-196.27,7.32,278.91,63.56,7.83,95.62,303.6-11.36-250.14,65.19-120.63,85.85-263.06.47,19.88,1.55,60.27-3.62,48.13,24.88,17.53,41.41,91.15,61.94,135.9-24.84-204.49,3.25-255.84,4.72-384.26,53.79,193.19,16.06,242,50.22,429.91-23.8-165.26,24.68-171.47-3.23-308.06,37.24,119,25.87,56.71,59.5,224.57-31-255.76,13.41-46,9.34-205,47,121.75,40.15,238.07,62.56,156C-1882.68,3047.09-1899.7,3141.5-1899.7,3141.5Zm723.46-547.59.39,2.92c-6.29,4.24-11.65,7.94-15,10.47A164.23,164.23,0,0,0-1176.24,2593.91Zm65.52-11.22c-8.79-4.65-18.91-4.28-29.34-1.86-9.15-50.17-13.73-102.65-6.74-100.89C-1145.8,2514.29-1126.34,2541.3-1110.72,2582.69Zm-276.89-995.92c7.61-22.14,15,6.14,20.5,36-4.58,3.22-9.66,9-15.84,20,.44,5.51.66,11.85,1.2,18.09C-1384.55,1632.73-1387,1606.37-1387.61,1586.77Z" class="cls-8"/>
            <rect width="1125" height="2208" class="cls-1"/>
        </g>
    </g>
</svg>
